<?xml version="1.0" encoding="utf-8"?>
<!-- Generator: Adobe Illustrator 19.1.0, SVG Export Plug-In . SVG Version: 6.00 Build 0)  -->
<svg version="1.1" id="Layer_1" xmlns="http://www.w3.org/2000/svg" xmlns:xlink="http://www.w3.org/1999/xlink" x="0px" y="0px"
	 viewBox="-1376 1450 246 102" style="enable-background:new -1376 1450 246 102;" xml:space="preserve">
<style type="text/css">
	.st0{fill:#FFFFFF;}
	.st1{fill:#ffc107;}
</style>
<g>
	<g>
		<path class="st0" d="M-1271.1,1492.1h6.1l6.8,11l6.8-11h6.1v25.9h-5.7v-16.9l-7.3,11.1h-0.1l-7.2-11v16.8h-5.6L-1271.1,1492.1
			L-1271.1,1492.1z"/>
		<path class="st0" d="M-1242.9,1512.3L-1242.9,1512.3c0-4.4,3.3-6.4,8-6.4c2,0,3.4,0.3,4.9,0.8v-0.3c0-2.3-1.4-3.6-4.3-3.6
			c-2.1,0-3.7,0.4-5.5,1.1l-1.4-4.3c2.2-1,4.3-1.6,7.7-1.6c3.1,0,5.3,0.8,6.7,2.2c1.5,1.5,2.1,3.7,2.1,6.3v11.5h-5.4v-2.1
			c-1.4,1.5-3.3,2.5-6,2.5C-1239.8,1518.4-1242.9,1516.2-1242.9,1512.3z M-1230,1511v-1c-1-0.4-2.2-0.7-3.6-0.7
			c-2.4,0-3.9,1-3.9,2.7v0.1c0,1.5,1.3,2.4,3.1,2.4C-1231.8,1514.5-1230,1513-1230,1511z"/>
		<path class="st0" d="M-1221.3,1498.1h5.6v4c1.1-2.7,3-4.5,6.3-4.4v5.9h-0.3c-3.7,0-6,2.3-6,7v7.4h-5.6V1498.1z"/>
		<path class="st0" d="M-1207.3,1491h5.6v14.4l6.6-7.2h6.7l-7.6,7.8l7.8,12h-6.4l-5.2-8.1l-2,2.1v6h-5.6L-1207.3,1491L-1207.3,1491z
			"/>
		<path class="st0" d="M-1188.7,1508.2L-1188.7,1508.2c0-5.7,4-10.4,9.8-10.4c6.6,0,9.7,5.1,9.7,10.8c0,0.4,0,1-0.1,1.5h-13.8
			c0.6,2.6,2.3,3.9,4.9,3.9c1.9,0,3.3-0.6,4.8-2l3.2,2.9c-1.9,2.3-4.5,3.7-8.1,3.7C-1184.3,1518.4-1188.7,1514.3-1188.7,1508.2z
			 M-1174.7,1506.5c-0.3-2.5-1.8-4.2-4.2-4.2c-2.3,0-3.9,1.7-4.3,4.2H-1174.7z"/>
		<path class="st0" d="M-1165.6,1512.4v-9.4h-2.4v-4.8h2.4v-5.1h5.6v5.1h4.7v4.8h-4.7v8.5c0,1.3,0.6,1.9,1.8,1.9c1,0,2-0.3,2.8-0.7
			v4.5c-1.2,0.7-2.6,1.1-4.4,1.1C-1163.3,1518.3-1165.6,1517-1165.6,1512.4z"/>
	</g>
	<g>
		<path class="st1" d="M-1319.3,1517.9v-12.7c0-4.5-2.5-7.3-6.7-7.3c-2.8,0-4.5,1.5-5.8,3.2v-13.7h-5.6v30.5h5.6V1507
			c0-2.6,1.4-4,3.5-4c2.1,0,3.4,1.4,3.4,4v11L-1319.3,1517.9L-1319.3,1517.9z"/>
		<path class="st1" d="M-1297.6,1508.6c0-5.6-3-10.7-9.6-10.7c-5.7,0-9.7,4.6-9.7,10.2v0.1c0,6,4.4,10.1,10.3,10.1
			c3.6,0,6.2-1.4,8-3.7l-3.2-2.8c-1.5,1.4-2.9,2-4.8,2c-2.5,0-4.3-1.3-4.8-3.8h13.7C-1297.6,1509.5-1297.6,1509-1297.6,1508.6z
			 M-1311.4,1506.6c0.4-2.5,1.9-4.2,4.3-4.2c2.3,0,3.8,1.7,4.1,4.2H-1311.4z"/>
		<path class="st1" d="M-1282.9,1498.3l-4.3,13.4l-4.5-13.4h-5.9l7.6,19.4l-6.7,18.7h5.4l6.3-17.3c0.1-0.2,0.2-0.4,0.3-0.7l7.5-20.1
			C-1277.2,1498.3-1282.9,1498.3-1282.9,1498.3z"/>
		<path class="st1" d="M-1334.8,1523.4c-5.9,0-10.6-4.8-10.6-10.6v-21.3c0-5.9,4.8-10.6,10.6-10.6h41.5c5.8,0,10.6,4.7,10.6,10.6
			v4.3h5.5v-4.2l0,0c0-8.9-7.2-16.2-16.2-16.2h-41.4c-8.9,0-16.2,7.2-16.2,16.2v21.3c0,8.8,7.3,16.1,16.2,16.1h37.1l2.2-5.5
			L-1334.8,1523.4L-1334.8,1523.4z"/>
	</g>
</g>
</svg>
